<svg id="visual" viewBox="0 0 900 600" width="900" height="600" xmlns="http://www.w3.org/2000/svg" xmlns:xlink="http://www.w3.org/1999/xlink" version="1.1"><rect x="0" y="0" width="900" height="600" fill="#161616"></rect><path d="M0 320L21.5 316.8C43 313.7 86 307.3 128.8 313C171.7 318.7 214.3 336.3 257.2 335.2C300 334 343 314 385.8 319.2C428.7 324.3 471.3 354.7 514.2 355C557 355.3 600 325.7 642.8 323.3C685.7 321 728.3 346 771.2 346.5C814 347 857 323 878.5 311L900 299L900 601L878.5 601C857 601 814 601 771.2 601C728.3 601 685.7 601 642.8 601C600 601 557 601 514.2 601C471.3 601 428.7 601 385.8 601C343 601 300 601 257.2 601C214.3 601 171.7 601 128.8 601C86 601 43 601 21.5 601L0 601Z" fill="#fa7268"></path><path d="M0 430L21.5 424.5C43 419 86 408 128.8 404.2C171.7 400.3 214.3 403.7 257.2 406.5C300 409.3 343 411.7 385.8 406.5C428.7 401.3 471.3 388.7 514.2 389.8C557 391 600 406 642.8 407.3C685.7 408.7 728.3 396.3 771.2 379.8C814 363.3 857 342.7 878.5 332.3L900 322L900 601L878.5 601C857 601 814 601 771.2 601C728.3 601 685.7 601 642.8 601C600 601 557 601 514.2 601C471.3 601 428.7 601 385.8 601C343 601 300 601 257.2 601C214.3 601 171.7 601 128.8 601C86 601 43 601 21.5 601L0 601Z" fill="#cf594f"></path><path d="M0 401L21.5 400.5C43 400 86 399 128.8 402.3C171.7 405.7 214.3 413.3 257.2 416.7C300 420 343 419 385.8 412.5C428.7 406 471.3 394 514.2 403.3C557 412.7 600 443.3 642.8 456.2C685.7 469 728.3 464 771.2 453C814 442 857 425 878.5 416.5L900 408L900 601L878.5 601C857 601 814 601 771.2 601C728.3 601 685.7 601 642.8 601C600 601 557 601 514.2 601C471.3 601 428.7 601 385.8 601C343 601 300 601 257.2 601C214.3 601 171.7 601 128.8 601C86 601 43 601 21.5 601L0 601Z" fill="#a64037"></path><path d="M0 458L21.5 466C43 474 86 490 128.8 492C171.7 494 214.3 482 257.2 484.3C300 486.7 343 503.3 385.8 499.5C428.7 495.7 471.3 471.3 514.2 461.2C557 451 600 455 642.8 453.3C685.7 451.7 728.3 444.3 771.2 449.2C814 454 857 471 878.5 479.5L900 488L900 601L878.5 601C857 601 814 601 771.2 601C728.3 601 685.7 601 642.8 601C600 601 557 601 514.2 601C471.3 601 428.7 601 385.8 601C343 601 300 601 257.2 601C214.3 601 171.7 601 128.8 601C86 601 43 601 21.5 601L0 601Z" fill="#7f2820"></path><path d="M0 539L21.5 531.5C43 524 86 509 128.8 510.2C171.7 511.3 214.3 528.7 257.2 539.3C300 550 343 554 385.8 550.5C428.7 547 471.3 536 514.2 530.5C557 525 600 525 642.8 521.2C685.7 517.3 728.3 509.7 771.2 513C814 516.3 857 530.7 878.5 537.8L900 545L900 601L878.5 601C857 601 814 601 771.2 601C728.3 601 685.7 601 642.8 601C600 601 557 601 514.2 601C471.3 601 428.7 601 385.8 601C343 601 300 601 257.2 601C214.3 601 171.7 601 128.8 601C86 601 43 601 21.5 601L0 601Z" fill="#59100a"></path></svg>